<svg xmlns="http://www.w3.org/2000/svg" version="1.1" xmlns:xlink="http://www.w3.org/1999/xlink" width="2000" height="1500" viewBox="0 0 2000 1500"><rect width="2000" height="1500" x="0" y="0" id="background" stroke="transparent" fill="#001f3f"></rect><svg xml:space="preserve" width="1500" height="1125" data-version="2" data-id="lg_GxOUHtyXLJvYR8B9LJ" viewBox="0 0 561 71" x="250" y="187.5"><rect width="100%" height="100%" fill="transparent"></rect><g transform="translate(280.5 35.5)"><filter id="a" width="140%" height="140%" x="-20%" y="-20%"><feGaussianBlur in="SourceAlpha"></feGaussianBlur><feOffset result="oBlur"></feOffset><feFlood flood-color="#465454" flood-opacity="1"></feFlood><feComposite in2="oBlur" operator="in"></feComposite><feMerge><feMergeNode></feMergeNode><feMergeNode in="SourceGraphic"></feMergeNode></feMerge></filter><g filter="url(#a)"><g transform="translate(-233.49 -.54)"><linearGradient id="b" x1="-.01" x2="5.03" y1="0" y2="0" gradientUnits="objectBoundingBox"><stop offset="0%" stop-color="#6ee2f5"></stop><stop offset="100%" stop-color="#6454f0"></stop></linearGradient><path fill="url(#b)" d="M125.85 360.75h9.39l31.67 29.73 32.52-29.73h9.07v65.5h-26.95V405l-16.74 18.38-16.28-17.89v20.76h-22.68Z" paint-order="stroke" transform="translate(-167.18 -393.5)"></path></g><rect width="82.65" height="65.5" x="-41.33" y="-32.75" fill="none" rx="0" ry="0" transform="translate(-232.99 -.04)"></rect><g transform="translate(-147.33 -.66)"><linearGradient id="c" x1="-1.17" x2="4.86" y1="0" y2="0" gradientUnits="objectBoundingBox"><stop offset="0%" stop-color="#6ee2f5"></stop><stop offset="100%" stop-color="#6454f0"></stop></linearGradient><path fill="url(#c)" d="M252.96 427.85q-6.93 0-13.44-2.44-6.5-2.44-11.68-7-5.19-4.55-8.23-10.93-3.03-6.38-3.03-14.25 0-7.71 2.85-14.03 2.85-6.31 7.89-10.87 5.05-4.55 11.63-6.99 6.58-2.44 14.01-2.44 7.79 0 14.54 2.36 6.74 2.36 11.81 6.85t7.92 10.91q2.85 6.42 2.85 14.54 0 7.87-3 14.21-2.99 6.34-8.2 10.81-5.21 4.47-11.87 6.87-6.67 2.4-14.05 2.4m-2.87-21.33q2.17 0 4.63-2.11 2.46-2.12 4.64-5.4 2.17-3.28 3.54-6.93 1.38-3.65 1.38-6.73 0-2.87-1.52-4.75-1.52-1.89-5.13-1.89-2.21 0-4.73 2.07-2.53 2.07-4.72 5.33-2.2 3.26-3.59 6.89-1.39 3.63-1.39 6.71 0 2.95 1.57 4.88 1.58 1.93 5.32 1.93" paint-order="stroke" transform="translate(-253.33 -393.38)"></path></g><rect width="73.5" height="68.95" x="-36.75" y="-34.48" fill="none" rx="0" ry="0" transform="translate(-146.83 -.16)"></rect><g transform="translate(-67.68 -.66)"><linearGradient id="d" x1="-2.17" x2="3.86" y1="0" y2="0" gradientUnits="objectBoundingBox"><stop offset="0%" stop-color="#6ee2f5"></stop><stop offset="100%" stop-color="#6454f0"></stop></linearGradient><path fill="url(#d)" d="M332.61 427.85q-6.93 0-13.43-2.44t-11.69-7q-5.19-4.55-8.23-10.93-3.03-6.38-3.03-14.25 0-7.71 2.85-14.03 2.85-6.31 7.89-10.87 5.05-4.55 11.63-6.99 6.59-2.44 14.01-2.44 7.79 0 14.54 2.36 6.75 2.36 11.81 6.85 5.07 4.49 7.92 10.91 2.85 6.42 2.85 14.54 0 7.87-3 14.21-2.99 6.34-8.2 10.81-5.21 4.47-11.87 6.87-6.67 2.4-14.05 2.4m-2.87-21.33q2.17 0 4.63-2.11 2.46-2.12 4.64-5.4 2.17-3.28 3.55-6.93 1.37-3.65 1.37-6.73 0-2.87-1.52-4.75-1.52-1.89-5.12-1.89-2.22 0-4.74 2.07t-4.72 5.33q-2.19 3.26-3.59 6.89-1.39 3.63-1.39 6.71 0 2.95 1.58 4.88 1.58 1.93 5.31 1.93" paint-order="stroke" transform="translate(-332.98 -393.38)"></path></g><rect width="73.5" height="68.95" x="-36.75" y="-34.48" fill="none" rx="0" ry="0" transform="translate(-67.18 -.16)"></rect><g transform="translate(10.29 -1.46)"><linearGradient id="e" x1="-3.41" x2="3.14" y1="0" y2="0" gradientUnits="objectBoundingBox"><stop offset="0%" stop-color="#6ee2f5"></stop><stop offset="100%" stop-color="#6454f0"></stop></linearGradient><path fill="url(#e)" d="m377.89 360.75 2.46-.19 6.44-.47q3.98-.29 8.66-.55 4.67-.27 9.2-.46 4.54-.18 8.02-.18 8.04 0 13.95 3.03 5.9 3.04 9.76 8.11 3.85 5.06 5.74 11.19 1.89 6.13 1.89 12.33 0 7.71-2.63 13.78-2.62 6.07-7.32 10.29-4.69 4.23-11.03 6.42-6.34 2.2-13.72 2.2h-31.42Zm25.51 45.77q2.18-1.85 4.68-3.69 2.5-1.85 4.74-3.94 2.23-2.09 3.65-4.7 1.41-2.6 1.41-6.01 0-2.25-.94-4.59-.95-2.34-2.73-3.92t-4.41-1.58q-1.89 0-3.55 1.03t-2.85 2.42Z" paint-order="stroke" transform="translate(-410.95 -392.57)"></path></g><rect width="66.12" height="67.35" x="-33.06" y="-33.67" fill="none" rx="0" ry="0" transform="translate(10.79 -.96)"></rect><g transform="translate(84.2 .42)"><linearGradient id="f" x1="-4.33" x2="2.08" y1="0" y2="0" gradientUnits="objectBoundingBox"><stop offset="0%" stop-color="#6ee2f5"></stop><stop offset="100%" stop-color="#6454f0"></stop></linearGradient><path fill="url(#f)" d="m477.85 360.75 10.21 20.54 9.51-20.54h24.04l-32.2 65.42q-.49.94-1.54 1.47-1.04.53-2.15.53-1.15 0-2.15-.49-1.01-.49-1.54-1.51l-33.92-65.42Z" paint-order="stroke" transform="translate(-484.86 -394.46)"></path></g><rect width="73.5" height="67.42" x="-36.75" y="-33.71" fill="none" rx="0" ry="0" transform="translate(84.7 .93)"></rect><g transform="translate(139.81 -.54)"><linearGradient id="g" x1="-11.34" x2="3.43" y1="0" y2="0" gradientUnits="objectBoundingBox"><stop offset="0%" stop-color="#6ee2f5"></stop><stop offset="100%" stop-color="#6454f0"></stop></linearGradient><path fill="url(#g)" d="M553.23 426.25h-25.51v-65.5h25.51Z" paint-order="stroke" transform="translate(-540.48 -393.5)"></path></g><rect width="25.51" height="65.5" x="-12.76" y="-32.75" fill="none" rx="0" ry="0" transform="translate(140.31 -.04)"></rect><g transform="translate(187.76 -.66)"><linearGradient id="h" x1="-7" x2=".95" y1="0" y2="0" gradientUnits="objectBoundingBox"><stop offset="0%" stop-color="#6ee2f5"></stop><stop offset="100%" stop-color="#6454f0"></stop></linearGradient><path fill="url(#h)" d="M616.15 424.32q-8.74 3.53-18.91 3.53-6.97 0-13.51-2.14-6.54-2.13-11.73-6.23-5.19-4.1-8.25-10.09-3.05-5.99-3.05-13.7 0-8.16 2.89-14.91t8.22-11.65q5.33-4.9 12.64-7.56 7.3-2.67 16.16-2.67 1.64 0 4.16.16 2.52.17 5.23.6 2.71.43 4.88 1.25v21.16q-2.71-1.02-5.54-1.02-4.22 0-7.79 2.07-3.57 2.07-5.7 5.56-2.13 3.48-2.13 7.75 0 4.22 1.64 6.6t4.84 2.38q1.27 0 3.03-.41 1.76-.41 4.82-2.05 3.06-1.64 8.1-5.33Z" paint-order="stroke" transform="translate(-588.42 -393.38)"></path></g><rect width="55.45" height="68.95" x="-27.73" y="-34.48" fill="none" rx="0" ry="0" transform="translate(188.26 -.16)"></rect><g transform="translate(249.49 -.54)"><linearGradient id="i" x1="-8.58" x2=".01" y1="0" y2="0" gradientUnits="objectBoundingBox"><stop offset="0%" stop-color="#6ee2f5"></stop><stop offset="100%" stop-color="#6454f0"></stop></linearGradient><path fill="url(#i)" d="M625.83 360.75h47.21v18.86h-21.7v5.38h21.62v16.07h-21.62v6.2h23.13v18.99h-48.64Z" paint-order="stroke" transform="translate(-650.15 -393.5)"></path></g><rect width="48.64" height="65.5" x="-24.32" y="-32.75" fill="none" rx="0" ry="0" transform="translate(249.99 -.04)"></rect></g></g></svg></svg>